<svg xmlns="http://www.w3.org/2000/svg" viewBox="0 0 300 300" preserveAspectRatio="xMidYMid meet">
  <g transform="translate(0,300) scale(0.1,-0.1)" fill="none" stroke="black" stroke-width="1">
    <path d="M1176 2890c-37-12-75-47-92-87-12-27-14-205-14-1014l0-981-22 6c-107 31-146 38-234 43-288 17-554-102-637-285-30-68-29-170 3-237 54-112 193-211 360-257 121-32 329-32 445 1 164 46 300 142 352 249l28 57 3 858c1 472 6 857 10 855 4-2 30-15 59-30 28-15 109-45 180-66 174-53 224-80 313-171 84-85 133-172 152-267 13-69 22-84 52-84 37 0 46 19 46 97 0 197-103 488-225 636-68 82-126 129-232 186-162 87-262 194-330 354-41 98-47 105-98 128-43 20-74 22-119 9z m96-107c9-10 23-40 32-68 51-155 205-317 396-416 101-52 205-162 263-279 26-52 47-101 47-108 0-8-21 5-47 28-71 62-155 105-278 141-186 54-289 108-320 170-19 35-68 41-85 10-7-13-10-323-10-936 0-1036 7-947-82-1031-96-91-217-135-393-141-144-6-235 11-342 61-213 102-264 268-122 405 92 88 253 141 431 141 114 0 201-17 295-56 49-20 66-23 82-15 21 12 21 12 23 1040 3 996 4 1030 22 1050 23 26 67 27 88 4z"/>
  </g>
</svg>
