<?xml version="1.0" encoding="UTF-8" standalone="no"?>
<svg
   version="1.0"
   width="300.000000pt"
   height="300.000000pt"
   viewBox="0 0 300.000000 300.000000"
   preserveAspectRatio="xMidYMid meet"
   id="svg4"
   sodipodi:docname="discord_logo.svg"
   inkscape:version="1.4.2 (ebf0e940d0, 2025-05-08)"
   xmlns:inkscape="http://www.inkscape.org/namespaces/inkscape"
   xmlns:sodipodi="http://sodipodi.sourceforge.net/DTD/sodipodi-0.dtd"
   xmlns="http://www.w3.org/2000/svg"
   xmlns:svg="http://www.w3.org/2000/svg">
  <defs
     id="defs4" />
  <sodipodi:namedview
     id="namedview4"
     pagecolor="#ffffff"
     bordercolor="#000000"
     borderopacity="0.25"
     inkscape:showpageshadow="2"
     inkscape:pageopacity="0.0"
     inkscape:pagecheckerboard="0"
     inkscape:deskcolor="#d1d1d1"
     inkscape:document-units="pt"
     inkscape:zoom="2"
     inkscape:cx="199.75"
     inkscape:cy="200"
     inkscape:window-width="1920"
     inkscape:window-height="1011"
     inkscape:window-x="0"
     inkscape:window-y="0"
     inkscape:window-maximized="1"
     inkscape:current-layer="svg4" />
  <metadata
     id="metadata1">
Created by potrace 1.10, written by Peter Selinger 2001-2011
</metadata>
  <g
     transform="translate(0.000000,300.000000) scale(0.100000,-0.100000)"
     fill="#000000"
     stroke="none"
     id="g4">
    <path
       id="path4"
       d="m 1747,1596 c -49,-18 -64,-32 -88,-77 -59,-116 14,-259 131,-259 81,0 142,58 156,146 12,81 -43,174 -114,194 -44,12 -38,12 -85,-4 z m 130,-70 c 30,-32 33,-42 33,-97 0,-58 -2,-64 -39,-100 -54,-54 -110,-51 -165,8 -50,54 -46,140 9,199 33,34 38,36 82,31 38,-4 54,-12 80,-41 z m -698,75 c -46,-15 -78,-42 -99,-85 -38,-80 -22,-166 44,-224 32,-28 44,-32 91,-32 44,0 59,5 86,27 61,51 85,145 55,216 -14,34 -78,97 -99,97 -7,0 -21,2 -32,5 -11,2 -32,0 -46,-4 z m 85,-45 c 45,-19 81,-91 71,-144 -19,-103 -102,-150 -180,-102 -82,51 -79,200 4,245 33,18 63,18 105,1 z m -149,607 c -27,-8 -87,-29 -133,-46 -104,-38 -136,-72 -214,-228 -117,-235 -159,-406 -161,-655 -2,-189 1,-199 83,-253 115,-77 324,-171 379,-171 34,0 79,50 111,124 12,25 25,48 30,51 5,3 45,-1 87,-10 104,-22 293,-23 406,-1 48,9 92,14 96,11 5,-2 12,-17 16,-32 13,-55 88,-143 120,-143 80,0 373,146 435,216 l 30,35 v 158 c 0,249 -42,426 -157,659 -89,181 -115,206 -264,256 -63,21 -143,41 -178,43 l -64,6 -31,-38 -32,-37 h -173 -173 l -30,36 c -27,33 -33,36 -81,35 -29,0 -74,-8 -102,-16 z m 166,-45 21,-43 h 202 203 l 17,43 c 10,23 24,42 30,42 27,0 175,-41 260,-72 87,-32 91,-35 129,-93 55,-85 131,-246 162,-345 47,-151 56,-209 62,-403 7,-217 21,-185 -124,-273 -79,-48 -310,-151 -318,-142 -13,14 -96,150 -93,152 1,2 36,18 76,36 68,31 71,34 56,51 -15,16 -18,16 -70,-7 -126,-56 -205,-69 -399,-68 -166,0 -187,3 -268,27 -49,15 -106,36 -127,46 -31,15 -40,16 -55,5 -23,-17 -24,-17 63,-57 l 71,-33 -49,-77 -49,-77 -58,21 C 923,888 807,945 722,999 l -81,52 -7,66 c -8,79 2,235 22,353 28,159 101,348 200,514 38,65 41,67 119,97 73,29 242,77 273,79 7,0 22,-19 33,-42 z m 44,721 C 1168,2819 975,2754 835,2673 493,2478 255,2148 174,1755 148,1629 148,1371 174,1245 232,966 348,750 549,550 754,346 959,236 1250,174 c 118,-25 371,-25 494,-1 268,54 490,168 682,349 201,191 336,432 395,708 32,150 32,391 0,540 -76,353 -281,656 -578,854 -268,178 -599,255 -918,215 z m 415,-44 c 528,-101 939,-506 1051,-1038 29,-133 31,-359 5,-492 -68,-349 -272,-661 -561,-854 -95,-63 -222,-131 -246,-131 -5,0 -17,-4 -27,-10 -31,-18 -136,-48 -227,-66 -122,-24 -348,-24 -470,0 -403,79 -739,325 -932,686 -45,83 -91,208 -120,328 -22,92 -26,129 -27,267 -1,336 88,586 305,861 130,163 367,327 583,400 79,27 227,61 296,68 82,7 284,-3 370,-19 z" />
  </g>
</svg>
