<?xml version="1.0" standalone="no"?>
<!DOCTYPE svg PUBLIC "-//W3C//DTD SVG 20010904//EN"
 "http://www.w3.org/TR/2001/REC-SVG-20010904/DTD/svg10.dtd">
<svg version="1.0" xmlns="http://www.w3.org/2000/svg"
 width="300.000000pt" height="285.000000pt" viewBox="0 0 300.000000 285.000000"
 preserveAspectRatio="xMidYMid meet">
<metadata>
Created by potrace 1.10, written by Peter Selinger 2001-2011
</metadata>
<g transform="translate(0.000000,285.000000) scale(0.100000,-0.100000)"
fill="#000000" stroke="none">
<path d="M1280 2745 c-297 -49 -579 -200 -792 -424 -180 -189 -299 -418 -355
-681 -24 -115 -24 -351 0 -475 80 -411 290 -719 625 -913 73 -43 247 -121 329
-147 108 -35 126 -5 121 200 l-3 130 -76 -4 c-115 -5 -176 16 -242 83 -28 30
-77 94 -107 142 -62 102 -87 126 -142 145 -54 17 -62 34 -12 26 77 -13 164
-66 251 -154 45 -46 98 -90 117 -98 53 -22 134 -19 186 7 40 21 46 28 52 67 4
24 19 59 34 78 40 53 29 79 -44 93 -232 46 -361 132 -437 292 -89 188 -68 401
54 563 l39 52 -20 59 c-21 62 -21 151 0 205 l11 27 72 -14 c72 -14 176 -56
229 -94 l28 -20 78 22 c116 32 347 32 456 0 l78 -22 52 40 c63 47 161 88 219
92 42 3 43 2 55 -37 18 -57 17 -145 -2 -204 -17 -50 -17 -50 9 -84 131 -172
155 -432 56 -617 -72 -135 -190 -211 -382 -244 -98 -17 -114 -23 -121 -42 -3
-9 14 -57 39 -107 53 -108 65 -167 65 -333 0 -123 5 -138 38 -127 15 6 17 253
2 334 -5 30 -27 89 -49 131 -21 43 -36 80 -33 83 3 3 20 5 37 5 51 0 178 36
243 69 170 86 275 269 276 481 0 138 -31 247 -106 363 -29 46 -30 49 -18 92
16 58 8 197 -15 253 -16 40 -19 42 -61 42 -65 0 -193 -44 -258 -90 l-57 -40
-62 17 c-89 25 -366 25 -456 0 l-65 -18 -90 46 c-55 27 -121 51 -168 60 -117
23 -123 22 -143 -27 -24 -57 -30 -190 -13 -247 14 -45 14 -45 -28 -107 -62
-92 -85 -169 -91 -299 -6 -130 9 -203 65 -310 75 -142 221 -246 398 -282 l81
-17 -24 -40 c-12 -23 -23 -51 -23 -64 0 -41 -93 -66 -157 -41 -15 6 -66 48
-113 93 -93 91 -147 126 -229 150 -71 21 -104 20 -131 -2 -18 -15 -22 -25 -16
-46 5 -21 20 -33 71 -56 62 -28 67 -33 130 -130 125 -194 189 -240 338 -248
l89 -5 -4 -112 c-2 -63 -6 -116 -10 -120 -9 -10 -227 78 -325 131 -407 220
-652 637 -655 1114 -1 150 14 253 54 380 149 468 535 813 1028 917 106 22 360
24 470 4 116 -21 276 -75 383 -130 357 -182 607 -503 692 -891 26 -118 31
-376 10 -501 -98 -588 -568 -989 -1237 -1055 -64 -6 -68 -8 -68 -32 l0 -25 81
7 c558 46 1022 366 1204 831 116 295 121 644 14 956 -150 437 -547 778 -1029
884 -104 23 -379 29 -490 10z"/>
</g>
</svg>
