<svg xmlns="http://www.w3.org/2000/svg" viewBox="0 0 300 300" preserveAspectRatio="xMidYMid meet">
  <g transform="translate(0,300) scale(0.1,-0.1)" fill="none" stroke="black" stroke-width="1">
    <path d="M962 2933c-48-23-98-86-143-179-79-164-101-323-74-549l17-140-54-45c-187-157-329-323-384-447-129-291-9-629 273-770 100-50 174-67 270-61l72 5 6-46c3-25 10-73 15-106 39-255 9-375-108-428-64-29-162-30-216-1-54 28-55 40-5 47 52 7 88 32 111 78 40 76 6 177-72 217-56 28-84 28-140-1-117-59-127-239-19-346 122-121 377-101 473 38 14 20 33 67 42 104 16 65 16 75-5 230-12 89-24 176-26 193-5 30-3 32 60 63 83 41 150 109 189 191 38 81 47 209 23 303-43 164-181 277-338 277l-48 0-5 43c-3 23-13 89-21 147l-15 105 83 80c121 116 178 208 213 340 26 99 26 363 1 455-23 85-58 158-90 193-30 31-40 33-85 10z m105-257c26-22 28-30 28-93 0-96-41-204-116-302-73-98-157-177-171-163-6 6-11 60-11 129 0 94 5 132 23 188 50 157 130 262 202 264 9 1 30-10 45-23z m-254-992c10-70 16-128 15-129-2-1-27-15-56-31-166-88-239-290-163-450 32-67 82-115 139-132 54-17 60 1 10 34-129 86-110 291 34 365 44 23 68 24 68 5 0-12 22-183 65-503l6-42-46-7c-192-28-382 70-466 241-78 159-35 364 111 528 54 62 250 247 261 247 3 0 13-57 22-126z m194-341c51-21 104-74 129-128 42-89 29-227-27-307-20-27-102-88-120-88-4 0-10 24-14 53-4 28-17 129-30 222-13 94-26 194-30 222l-7 53 34-7c18-3 47-12 65-20z"/>
  </g>
</svg>
