<?xml version="1.0" standalone="no"?>
<!DOCTYPE svg PUBLIC "-//W3C//DTD SVG 20010904//EN"
 "http://www.w3.org/TR/2001/REC-SVG-20010904/DTD/svg10.dtd">
<svg version="1.0" xmlns="http://www.w3.org/2000/svg"
 width="300.000000pt" height="300.000000pt" viewBox="0 0 300.000000 300.000000"
 preserveAspectRatio="xMidYMid meet">
<metadata>
Created by potrace 1.10, written by Peter Selinger 2001-2011
</metadata>
<g transform="translate(0.000000,300.000000) scale(0.100000,-0.100000)"
fill="#000000" stroke="none">
<path d="M1878 2514 c-141 -34 -286 -140 -347 -253 -36 -68 -61 -164 -61 -238
0 -61 7 -83 26 -83 11 0 14 17 14 73 0 185 85 329 246 414 195 103 406 80 564
-63 l40 -36 52 12 c68 16 206 66 224 81 29 24 26 -1 -5 -49 -38 -60 -117 -136
-189 -181 -29 -18 -51 -35 -49 -38 5 -4 268 59 301 73 35 14 -23 -53 -118
-137 l-89 -78 2 -78 c4 -156 -40 -373 -108 -540 -179 -435 -554 -759 -983
-847 -342 -71 -675 -37 -948 96 l-105 52 115 7 c135 8 206 21 291 54 116 46
303 158 296 178 -2 7 -32 15 -66 20 -143 18 -257 89 -340 212 -28 42 -51 80
-51 84 0 4 28 8 63 9 65 1 213 30 203 40 -3 3 -32 9 -63 13 -133 18 -281 127
-342 251 -26 53 -66 196 -57 205 1 1 24 -6 52 -16 52 -20 234 -52 234 -42 0 3
-20 17 -45 30 -52 28 -141 118 -178 181 -63 108 -72 256 -25 393 l24 68 32
-40 c45 -55 180 -167 282 -234 151 -97 291 -159 457 -201 84 -22 100 -23 112
-11 18 18 2 24 -124 55 -262 62 -600 275 -736 463 l-28 38 -19 -38 c-29 -55
-60 -162 -67 -230 -14 -120 35 -266 120 -361 25 -27 45 -52 45 -55 0 -8 -84
20 -130 43 -23 12 -44 20 -46 17 -10 -9 19 -175 41 -233 45 -121 134 -218 248
-273 l62 -30 -50 0 c-28 -1 -66 3 -84 9 -19 5 -37 7 -39 5 -3 -3 14 -44 37
-91 75 -150 201 -254 348 -287 l57 -13 -74 -43 c-185 -106 -262 -126 -496
-126 l-180 0 62 -47 c361 -273 1002 -304 1459 -70 358 184 646 564 745 984 23
99 44 298 36 348 -5 32 -2 38 35 65 99 73 238 249 216 272 -3 2 -22 -4 -44
-15 -21 -11 -64 -27 -95 -36 -32 -9 -65 -19 -75 -23 -10 -3 7 20 38 53 66 70
97 126 106 191 6 47 5 48 -13 31 -30 -26 -162 -85 -246 -109 l-76 -22 -47 41
c-117 103 -291 144 -447 106z"/>
</g>
</svg>
